{
    "asset" : {
        "generator" : "Khronos glTF Blender I/O v1.7.33",
        "version" : "2.0"
    },
    "scene" : 0,
    "scenes" : [
        {
            "name" : "Scene",
            "nodes" : [
                0
            ]
        }
    ],
    "nodes" : [
        {
            "mesh" : 0,
            "name" : "Circle.003",
            "scale" : [
                0.30399587750434875,
                0.31650403141975403,
                0.30399587750434875
            ],
            "translation" : [
                -6.752250671386719,
                -0.14955782890319824,
                -4.292373180389404
            ]
        }
    ],
    "materials" : [
        {
            "doubleSided" : true,
            "name" : "Niebieski",
            "pbrMetallicRoughness" : {
                "baseColorFactor" : [
                    0,
                    0.19624492526054382,
                    0.8549773693084717,
                    1
                ],
                "metallicFactor" : 0,
                "roughnessFactor" : 0.5
            }
        },
        {
            "doubleSided" : true,
            "name" : "Srebny",
            "pbrMetallicRoughness" : {
                "baseColorFactor" : [
                    0.2956908941268921,
                    0.2956908941268921,
                    0.2956908941268921,
                    1
                ],
                "metallicFactor" : 0,
                "roughnessFactor" : 0.5
            }
        }
    ],
    "meshes" : [
        {
            "name" : "Circle.004",
            "primitives" : [
                {
                    "attributes" : {
                        "POSITION" : 0,
                        "NORMAL" : 1,
                        "TEXCOORD_0" : 2
                    },
                    "indices" : 3,
                    "material" : 0
                },
                {
                    "attributes" : {
                        "POSITION" : 4,
                        "NORMAL" : 5,
                        "TEXCOORD_0" : 6
                    },
                    "indices" : 7,
                    "material" : 1
                }
            ]
        }
    ],
    "accessors" : [
        {
            "bufferView" : 0,
            "componentType" : 5126,
            "count" : 544,
            "max" : [
                1.4070746898651123,
                6.774247169494629,
                1.4070746898651123
            ],
            "min" : [
                -1.4070746898651123,
                0.12861713767051697,
                -1.4070746898651123
            ],
            "type" : "VEC3"
        },
        {
            "bufferView" : 1,
            "componentType" : 5126,
            "count" : 544,
            "type" : "VEC3"
        },
        {
            "bufferView" : 2,
            "componentType" : 5126,
            "count" : 544,
            "type" : "VEC2"
        },
        {
            "bufferView" : 3,
            "componentType" : 5123,
            "count" : 864,
            "type" : "SCALAR"
        },
        {
            "bufferView" : 4,
            "componentType" : 5126,
            "count" : 492,
            "max" : [
                1.151496410369873,
                6.904393672943115,
                1.151496410369873
            ],
            "min" : [
                -1.151496410369873,
                0.019348222762346268,
                -1.151496410369873
            ],
            "type" : "VEC3"
        },
        {
            "bufferView" : 5,
            "componentType" : 5126,
            "count" : 492,
            "type" : "VEC3"
        },
        {
            "bufferView" : 6,
            "componentType" : 5126,
            "count" : 492,
            "type" : "VEC2"
        },
        {
            "bufferView" : 7,
            "componentType" : 5123,
            "count" : 852,
            "type" : "SCALAR"
        }
    ],
    "bufferViews" : [
        {
            "buffer" : 0,
            "byteLength" : 6528,
            "byteOffset" : 0
        },
        {
            "buffer" : 0,
            "byteLength" : 6528,
            "byteOffset" : 6528
        },
        {
            "buffer" : 0,
            "byteLength" : 4352,
            "byteOffset" : 13056
        },
        {
            "buffer" : 0,
            "byteLength" : 1728,
            "byteOffset" : 17408
        },
        {
            "buffer" : 0,
            "byteLength" : 5904,
            "byteOffset" : 19136
        },
        {
            "buffer" : 0,
            "byteLength" : 5904,
            "byteOffset" : 25040
        },
        {
            "buffer" : 0,
            "byteLength" : 3936,
            "byteOffset" : 30944
        },
        {
            "buffer" : 0,
            "byteLength" : 1704,
            "byteOffset" : 34880
        }
    ],
    "buffers" : [
        {
            "byteLength" : 36584,
            "uri" : "data:application/octet-stream;base64,"
        }
    ]
}
