{
    "asset" : {
        "generator" : "Khronos glTF Blender I/O v1.7.33",
        "version" : "2.0"
    },
    "scene" : 0,
    "scenes" : [
        {
            "name" : "Scene",
            "nodes" : [
                0
            ]
        }
    ],
    "nodes" : [
        {
            "mesh" : 0,
            "name" : "drabina",
            "translation" : [
                -17.263479232788086,
                0.017336130142211914,
                0.43351858854293823
            ]
        }
    ],
    "materials" : [
        {
            "doubleSided" : true,
            "name" : "drabina",
            "pbrMetallicRoughness" : {
                "baseColorFactor" : [
                    0.2330152839422226,
                    0.07200826704502106,
                    0.014394679106771946,
                    1
                ],
                "metallicFactor" : 0,
                "roughnessFactor" : 0.5
            }
        }
    ],
    "meshes" : [
        {
            "name" : "Cube.002",
            "primitives" : [
                {
                    "attributes" : {
                        "POSITION" : 0,
                        "NORMAL" : 1,
                        "TEXCOORD_0" : 2
                    },
                    "indices" : 3,
                    "material" : 0
                }
            ]
        }
    ],
    "accessors" : [
        {
            "bufferView" : 0,
            "componentType" : 5126,
            "count" : 216,
            "max" : [
                1.7612495422363281,
                0.3374031186103821,
                0.06648141145706177
            ],
            "min" : [
                -1.721017837524414,
                -0.37207531929016113,
                -12.30495548248291
            ],
            "type" : "VEC3"
        },
        {
            "bufferView" : 1,
            "componentType" : 5126,
            "count" : 216,
            "type" : "VEC3"
        },
        {
            "bufferView" : 2,
            "componentType" : 5126,
            "count" : 216,
            "type" : "VEC2"
        },
        {
            "bufferView" : 3,
            "componentType" : 5123,
            "count" : 324,
            "type" : "SCALAR"
        }
    ],
    "bufferViews" : [
        {
            "buffer" : 0,
            "byteLength" : 2592,
            "byteOffset" : 0
        },
        {
            "buffer" : 0,
            "byteLength" : 2592,
            "byteOffset" : 2592
        },
        {
            "buffer" : 0,
            "byteLength" : 1728,
            "byteOffset" : 5184
        },
        {
            "buffer" : 0,
            "byteLength" : 648,
            "byteOffset" : 6912
        }
    ],
    "buffers" : [
        {
            "byteLength" : 7560,
            "uri" : "data:application/octet-stream;base64,"
        }
    ]
}
