{
    "asset" : {
        "generator" : "Khronos glTF Blender I/O v1.7.33",
        "version" : "2.0"
    },
    "scene" : 0,
    "scenes" : [
        {
            "name" : "Scene",
            "nodes" : [
                0
            ]
        }
    ],
    "nodes" : [
        {
            "mesh" : 0,
            "name" : "Cube.042"
        }
    ],
    "materials" : [
        {
            "doubleSided" : true,
            "name" : "drabina",
            "pbrMetallicRoughness" : {
                "baseColorFactor" : [
                    0.2330152839422226,
                    0.07200826704502106,
                    0.014394679106771946,
                    1
                ],
                "metallicFactor" : 0,
                "roughnessFactor" : 0.5
            }
        },
        {
            "doubleSided" : true,
            "name" : "Spod",
            "pbrMetallicRoughness" : {
                "baseColorFactor" : [
                    0,
                    0,
                    0,
                    1
                ],
                "metallicFactor" : 0,
                "roughnessFactor" : 0.5
            }
        },
        {
            "doubleSided" : true,
            "name" : "drewno",
            "pbrMetallicRoughness" : {
                "baseColorFactor" : [
                    0.11926037073135376,
                    0.024523649364709854,
                    0.003583961632102728,
                    1
                ],
                "metallicFactor" : 0,
                "roughnessFactor" : 0.5
            }
        }
    ],
    "meshes" : [
        {
            "name" : "Cube.044",
            "primitives" : [
                {
                    "attributes" : {
                        "POSITION" : 0,
                        "NORMAL" : 1,
                        "TEXCOORD_0" : 2
                    },
                    "indices" : 3,
                    "material" : 0
                },
                {
                    "attributes" : {
                        "POSITION" : 4,
                        "NORMAL" : 5,
                        "TEXCOORD_0" : 6
                    },
                    "indices" : 7,
                    "material" : 1
                },
                {
                    "attributes" : {
                        "POSITION" : 8,
                        "NORMAL" : 9,
                        "TEXCOORD_0" : 10
                    },
                    "indices" : 11,
                    "material" : 2
                }
            ]
        }
    ],
    "accessors" : [
        {
            "bufferView" : 0,
            "componentType" : 5126,
            "count" : 722,
            "max" : [
                8.038836479187012,
                3.5498709678649902,
                2.129622220993042
            ],
            "min" : [
                5.763197898864746,
                0.10483121871948242,
                -0.21388334035873413
            ],
            "type" : "VEC3"
        },
        {
            "bufferView" : 1,
            "componentType" : 5126,
            "count" : 722,
            "type" : "VEC3"
        },
        {
            "bufferView" : 2,
            "componentType" : 5126,
            "count" : 722,
            "type" : "VEC2"
        },
        {
            "bufferView" : 3,
            "componentType" : 5123,
            "count" : 1092,
            "type" : "SCALAR"
        },
        {
            "bufferView" : 4,
            "componentType" : 5126,
            "count" : 401,
            "max" : [
                8.016580581665039,
                3.5020699501037598,
                2.085845708847046
            ],
            "min" : [
                5.830410957336426,
                0.3034815788269043,
                -0.16244524717330933
            ],
            "type" : "VEC3"
        },
        {
            "bufferView" : 5,
            "componentType" : 5126,
            "count" : 401,
            "type" : "VEC3"
        },
        {
            "bufferView" : 6,
            "componentType" : 5126,
            "count" : 401,
            "type" : "VEC2"
        },
        {
            "bufferView" : 7,
            "componentType" : 5123,
            "count" : 768,
            "type" : "SCALAR"
        },
        {
            "bufferView" : 8,
            "componentType" : 5126,
            "count" : 144,
            "max" : [
                7.978755474090576,
                3.5484280586242676,
                2.129622220993042
            ],
            "min" : [
                5.763197898864746,
                0.10483121871948242,
                -0.21388334035873413
            ],
            "type" : "VEC3"
        },
        {
            "bufferView" : 9,
            "componentType" : 5126,
            "count" : 144,
            "type" : "VEC3"
        },
        {
            "bufferView" : 10,
            "componentType" : 5126,
            "count" : 144,
            "type" : "VEC2"
        },
        {
            "bufferView" : 11,
            "componentType" : 5123,
            "count" : 216,
            "type" : "SCALAR"
        }
    ],
    "bufferViews" : [
        {
            "buffer" : 0,
            "byteLength" : 8664,
            "byteOffset" : 0
        },
        {
            "buffer" : 0,
            "byteLength" : 8664,
            "byteOffset" : 8664
        },
        {
            "buffer" : 0,
            "byteLength" : 5776,
            "byteOffset" : 17328
        },
        {
            "buffer" : 0,
            "byteLength" : 2184,
            "byteOffset" : 23104
        },
        {
            "buffer" : 0,
            "byteLength" : 4812,
            "byteOffset" : 25288
        },
        {
            "buffer" : 0,
            "byteLength" : 4812,
            "byteOffset" : 30100
        },
        {
            "buffer" : 0,
            "byteLength" : 3208,
            "byteOffset" : 34912
        },
        {
            "buffer" : 0,
            "byteLength" : 1536,
            "byteOffset" : 38120
        },
        {
            "buffer" : 0,
            "byteLength" : 1728,
            "byteOffset" : 39656
        },
        {
            "buffer" : 0,
            "byteLength" : 1728,
            "byteOffset" : 41384
        },
        {
            "buffer" : 0,
            "byteLength" : 1152,
            "byteOffset" : 43112
        },
        {
            "buffer" : 0,
            "byteLength" : 432,
            "byteOffset" : 44264
        }
    ],
    "buffers" : [
        {
            "byteLength" : 44696,
            "uri" : "data:application/octet-stream;base64,"
        }
    ]
}
