{
    "asset" : {
        "generator" : "Khronos glTF Blender I/O v1.7.33",
        "version" : "2.0"
    },
    "scene" : 0,
    "scenes" : [
        {
            "name" : "Scene",
            "nodes" : [
                0
            ]
        }
    ],
    "nodes" : [
        {
            "mesh" : 0,
            "name" : "Cube.028"
        }
    ],
    "materials" : [
        {
            "doubleSided" : true,
            "name" : "Srebny",
            "pbrMetallicRoughness" : {
                "baseColorFactor" : [
                    0.29567423462867737,
                    0.13885602355003357,
                    0.08656511455774307,
                    1
                ],
                "metallicFactor" : 0,
                "roughnessFactor" : 0.5
            }
        },
        {
            "doubleSided" : true,
            "name" : "Material",
            "pbrMetallicRoughness" : {
                "baseColorFactor" : [
                    0.7742691040039062,
                    0.12672612071037292,
                    0.06753365695476532,
                    1
                ],
                "metallicFactor" : 0,
                "roughnessFactor" : 0.5
            }
        }
    ],
    "meshes" : [
        {
            "name" : "Cube.011",
            "primitives" : [
                {
                    "attributes" : {
                        "POSITION" : 0,
                        "NORMAL" : 1,
                        "TEXCOORD_0" : 2
                    },
                    "indices" : 3,
                    "material" : 0
                },
                {
                    "attributes" : {
                        "POSITION" : 4,
                        "NORMAL" : 5,
                        "TEXCOORD_0" : 6
                    },
                    "indices" : 7,
                    "material" : 1
                }
            ]
        }
    ],
    "accessors" : [
        {
            "bufferView" : 0,
            "componentType" : 5126,
            "count" : 104,
            "max" : [
                3.997495651245117,
                10.610003471374512,
                1.4259403944015503
            ],
            "min" : [
                -4.692122936248779,
                0.05527913570404053,
                -1.0839022397994995
            ],
            "type" : "VEC3"
        },
        {
            "bufferView" : 1,
            "componentType" : 5126,
            "count" : 104,
            "type" : "VEC3"
        },
        {
            "bufferView" : 2,
            "componentType" : 5126,
            "count" : 104,
            "type" : "VEC2"
        },
        {
            "bufferView" : 3,
            "componentType" : 5123,
            "count" : 168,
            "type" : "SCALAR"
        },
        {
            "bufferView" : 4,
            "componentType" : 5126,
            "count" : 1008,
            "max" : [
                3.2207741737365723,
                9.119474411010742,
                0.9542422294616699
            ],
            "min" : [
                -4.035886287689209,
                2.307321548461914,
                0.35371410846710205
            ],
            "type" : "VEC3"
        },
        {
            "bufferView" : 5,
            "componentType" : 5126,
            "count" : 1008,
            "type" : "VEC3"
        },
        {
            "bufferView" : 6,
            "componentType" : 5126,
            "count" : 1008,
            "type" : "VEC2"
        },
        {
            "bufferView" : 7,
            "componentType" : 5123,
            "count" : 1680,
            "type" : "SCALAR"
        }
    ],
    "bufferViews" : [
        {
            "buffer" : 0,
            "byteLength" : 1248,
            "byteOffset" : 0
        },
        {
            "buffer" : 0,
            "byteLength" : 1248,
            "byteOffset" : 1248
        },
        {
            "buffer" : 0,
            "byteLength" : 832,
            "byteOffset" : 2496
        },
        {
            "buffer" : 0,
            "byteLength" : 336,
            "byteOffset" : 3328
        },
        {
            "buffer" : 0,
            "byteLength" : 12096,
            "byteOffset" : 3664
        },
        {
            "buffer" : 0,
            "byteLength" : 12096,
            "byteOffset" : 15760
        },
        {
            "buffer" : 0,
            "byteLength" : 8064,
            "byteOffset" : 27856
        },
        {
            "buffer" : 0,
            "byteLength" : 3360,
            "byteOffset" : 35920
        }
    ],
    "buffers" : [
        {
            "byteLength" : 39280,
            "uri" : "data:application/octet-stream;base64,"
        }
    ]
}
