{
    "asset" : {
        "generator" : "Khronos glTF Blender I/O v1.7.33",
        "version" : "2.0"
    },
    "scene" : 0,
    "scenes" : [
        {
            "name" : "Scene",
            "nodes" : [
                0
            ]
        }
    ],
    "nodes" : [
        {
            "mesh" : 0,
            "name" : "Circle.003"
        }
    ],
    "materials" : [
        {
            "doubleSided" : true,
            "name" : "Niebieski",
            "pbrMetallicRoughness" : {
                "baseColorFactor" : [
                    0,
                    0.19624492526054382,
                    0.8549773693084717,
                    1
                ],
                "metallicFactor" : 0,
                "roughnessFactor" : 0.5
            }
        },
        {
            "doubleSided" : true,
            "name" : "Srebny",
            "pbrMetallicRoughness" : {
                "baseColorFactor" : [
                    0.2956908941268921,
                    0.2956908941268921,
                    0.2956908941268921,
                    1
                ],
                "metallicFactor" : 0,
                "roughnessFactor" : 0.5
            }
        }
    ],
    "meshes" : [
        {
            "name" : "Circle.004",
            "primitives" : [
                {
                    "attributes" : {
                        "POSITION" : 0,
                        "NORMAL" : 1,
                        "TEXCOORD_0" : 2
                    },
                    "indices" : 3,
                    "material" : 0
                },
                {
                    "attributes" : {
                        "POSITION" : 4,
                        "NORMAL" : 5,
                        "TEXCOORD_0" : 6
                    },
                    "indices" : 7,
                    "material" : 1
                }
            ]
        }
    ],
    "accessors" : [
        {
            "bufferView" : 0,
            "componentType" : 5126,
            "count" : 544,
            "max" : [
                0.24573363363742828,
                0.3328295946121216,
                1.4070487022399902
            ],
            "min" : [
                -0.23519186675548553,
                -0.8496084213256836,
                0.9261231422424316
            ],
            "type" : "VEC3"
        },
        {
            "bufferView" : 1,
            "componentType" : 5126,
            "count" : 544,
            "type" : "VEC3"
        },
        {
            "bufferView" : 2,
            "componentType" : 5126,
            "count" : 544,
            "type" : "VEC2"
        },
        {
            "bufferView" : 3,
            "componentType" : 5123,
            "count" : 864,
            "type" : "SCALAR"
        },
        {
            "bufferView" : 4,
            "componentType" : 5126,
            "count" : 478,
            "max" : [
                0.20205645263195038,
                0.35598623752593994,
                1.36337149143219
            ],
            "min" : [
                -0.19151468575000763,
                -0.8690503239631653,
                0.9698003530502319
            ],
            "type" : "VEC3"
        },
        {
            "bufferView" : 5,
            "componentType" : 5126,
            "count" : 478,
            "type" : "VEC3"
        },
        {
            "bufferView" : 6,
            "componentType" : 5126,
            "count" : 478,
            "type" : "VEC2"
        },
        {
            "bufferView" : 7,
            "componentType" : 5123,
            "count" : 852,
            "type" : "SCALAR"
        }
    ],
    "bufferViews" : [
        {
            "buffer" : 0,
            "byteLength" : 6528,
            "byteOffset" : 0
        },
        {
            "buffer" : 0,
            "byteLength" : 6528,
            "byteOffset" : 6528
        },
        {
            "buffer" : 0,
            "byteLength" : 4352,
            "byteOffset" : 13056
        },
        {
            "buffer" : 0,
            "byteLength" : 1728,
            "byteOffset" : 17408
        },
        {
            "buffer" : 0,
            "byteLength" : 5736,
            "byteOffset" : 19136
        },
        {
            "buffer" : 0,
            "byteLength" : 5736,
            "byteOffset" : 24872
        },
        {
            "buffer" : 0,
            "byteLength" : 3824,
            "byteOffset" : 30608
        },
        {
            "buffer" : 0,
            "byteLength" : 1704,
            "byteOffset" : 34432
        }
    ],
    "buffers" : [
        {
            "byteLength" : 36136,
            "uri" : "data:application/octet-stream;base64,"
        }
    ]
}
