{
    "asset" : {
        "generator" : "Khronos glTF Blender I/O v1.7.33",
        "version" : "2.0"
    },
    "scene" : 0,
    "scenes" : [
        {
            "name" : "Scene",
            "nodes" : [
                0
            ]
        }
    ],
    "nodes" : [
        {
            "mesh" : 0,
            "name" : "Circle.006",
            "scale" : [
                0.30399587750434875,
                0.31650403141975403,
                0.30399587750434875
            ]
        }
    ],
    "materials" : [
        {
            "doubleSided" : true,
            "name" : "Niebieski",
            "pbrMetallicRoughness" : {
                "baseColorFactor" : [
                    0,
                    0.19624492526054382,
                    0.8549773693084717,
                    1
                ],
                "metallicFactor" : 0,
                "roughnessFactor" : 0.5
            }
        },
        {
            "doubleSided" : true,
            "name" : "Srebny",
            "pbrMetallicRoughness" : {
                "baseColorFactor" : [
                    0.2956908941268921,
                    0.2956908941268921,
                    0.2956908941268921,
                    1
                ],
                "metallicFactor" : 0,
                "roughnessFactor" : 0.5
            }
        }
    ],
    "meshes" : [
        {
            "name" : "Circle.008",
            "primitives" : [
                {
                    "attributes" : {
                        "POSITION" : 0,
                        "NORMAL" : 1,
                        "TEXCOORD_0" : 2
                    },
                    "indices" : 3,
                    "material" : 0
                },
                {
                    "attributes" : {
                        "POSITION" : 4,
                        "NORMAL" : 5,
                        "TEXCOORD_0" : 6
                    },
                    "indices" : 7,
                    "material" : 1
                }
            ]
        }
    ],
    "accessors" : [
        {
            "bufferView" : 0,
            "componentType" : 5126,
            "count" : 544,
            "max" : [
                0.7820335030555725,
                3.7990517616271973,
                0.8621213436126709
            ],
            "min" : [
                -0.796164333820343,
                0.0721282958984375,
                -0.7160764932632446
            ],
            "type" : "VEC3"
        },
        {
            "bufferView" : 1,
            "componentType" : 5126,
            "count" : 544,
            "type" : "VEC3"
        },
        {
            "bufferView" : 2,
            "componentType" : 5126,
            "count" : 544,
            "type" : "VEC2"
        },
        {
            "bufferView" : 3,
            "componentType" : 5123,
            "count" : 864,
            "type" : "SCALAR"
        },
        {
            "bufferView" : 4,
            "componentType" : 5126,
            "count" : 479,
            "max" : [
                0.6387031674385071,
                3.8720390796661377,
                0.7187909483909607
            ],
            "min" : [
                -0.652833878993988,
                0.010849475860595703,
                -0.5727460980415344
            ],
            "type" : "VEC3"
        },
        {
            "bufferView" : 5,
            "componentType" : 5126,
            "count" : 479,
            "type" : "VEC3"
        },
        {
            "bufferView" : 6,
            "componentType" : 5126,
            "count" : 479,
            "type" : "VEC2"
        },
        {
            "bufferView" : 7,
            "componentType" : 5123,
            "count" : 852,
            "type" : "SCALAR"
        }
    ],
    "bufferViews" : [
        {
            "buffer" : 0,
            "byteLength" : 6528,
            "byteOffset" : 0
        },
        {
            "buffer" : 0,
            "byteLength" : 6528,
            "byteOffset" : 6528
        },
        {
            "buffer" : 0,
            "byteLength" : 4352,
            "byteOffset" : 13056
        },
        {
            "buffer" : 0,
            "byteLength" : 1728,
            "byteOffset" : 17408
        },
        {
            "buffer" : 0,
            "byteLength" : 5748,
            "byteOffset" : 19136
        },
        {
            "buffer" : 0,
            "byteLength" : 5748,
            "byteOffset" : 24884
        },
        {
            "buffer" : 0,
            "byteLength" : 3832,
            "byteOffset" : 30632
        },
        {
            "buffer" : 0,
            "byteLength" : 1704,
            "byteOffset" : 34464
        }
    ],
    "buffers" : [
        {
            "byteLength" : 36168,
            "uri" : "data:application/octet-stream;base64,"
        }
    ]
}
