{
    "asset" : {
        "generator" : "Khronos glTF Blender I/O v1.7.33",
        "version" : "2.0"
    },
    "scene" : 0,
    "scenes" : [
        {
            "name" : "Scene",
            "nodes" : [
                0
            ]
        }
    ],
    "nodes" : [
        {
            "mesh" : 0,
            "name" : "Cube.042",
            "translation" : [
                -0.009740617126226425,
                -0.7550914287567139,
                0.9679796695709229
            ]
        }
    ],
    "materials" : [
        {
            "doubleSided" : true,
            "name" : "drabina",
            "pbrMetallicRoughness" : {
                "baseColorFactor" : [
                    0.2330152839422226,
                    0.07200826704502106,
                    0.014394679106771946,
                    1
                ],
                "metallicFactor" : 0,
                "roughnessFactor" : 0.5
            }
        },
        {
            "doubleSided" : true,
            "name" : "Spod",
            "pbrMetallicRoughness" : {
                "baseColorFactor" : [
                    0,
                    0,
                    0,
                    1
                ],
                "metallicFactor" : 0,
                "roughnessFactor" : 0.5
            }
        },
        {
            "doubleSided" : true,
            "name" : "drewno",
            "pbrMetallicRoughness" : {
                "baseColorFactor" : [
                    0.11926037073135376,
                    0.024523649364709854,
                    0.003583961632102728,
                    1
                ],
                "metallicFactor" : 0,
                "roughnessFactor" : 0.5
            }
        }
    ],
    "meshes" : [
        {
            "name" : "Cube.044",
            "primitives" : [
                {
                    "attributes" : {
                        "POSITION" : 0,
                        "NORMAL" : 1,
                        "TEXCOORD_0" : 2
                    },
                    "indices" : 3,
                    "material" : 0
                },
                {
                    "attributes" : {
                        "POSITION" : 4,
                        "NORMAL" : 5,
                        "TEXCOORD_0" : 6
                    },
                    "indices" : 7,
                    "material" : 1
                },
                {
                    "attributes" : {
                        "POSITION" : 8,
                        "NORMAL" : 9,
                        "TEXCOORD_0" : 10
                    },
                    "indices" : 11,
                    "material" : 2
                }
            ]
        }
    ],
    "accessors" : [
        {
            "bufferView" : 0,
            "componentType" : 5126,
            "count" : 718,
            "max" : [
                0.40832972526550293,
                1.0878028869628906,
                0.40853607654571533
            ],
            "min" : [
                -0.3820037841796875,
                -0.1086658164858818,
                -0.4053678512573242
            ],
            "type" : "VEC3"
        },
        {
            "bufferView" : 1,
            "componentType" : 5126,
            "count" : 718,
            "type" : "VEC3"
        },
        {
            "bufferView" : 2,
            "componentType" : 5126,
            "count" : 718,
            "type" : "VEC2"
        },
        {
            "bufferView" : 3,
            "componentType" : 5123,
            "count" : 1086,
            "type" : "SCALAR"
        },
        {
            "bufferView" : 4,
            "componentType" : 5126,
            "count" : 405,
            "max" : [
                0.4006001949310303,
                1.0712015628814697,
                0.39333245158195496
            ],
            "min" : [
                -0.35866063833236694,
                -0.039673976600170135,
                -0.3875032961368561
            ],
            "type" : "VEC3"
        },
        {
            "bufferView" : 5,
            "componentType" : 5126,
            "count" : 405,
            "type" : "VEC3"
        },
        {
            "bufferView" : 6,
            "componentType" : 5126,
            "count" : 405,
            "type" : "VEC2"
        },
        {
            "bufferView" : 7,
            "componentType" : 5123,
            "count" : 774,
            "type" : "SCALAR"
        },
        {
            "bufferView" : 8,
            "componentType" : 5126,
            "count" : 144,
            "max" : [
                0.38746345043182373,
                1.0873018503189087,
                0.40853607654571533
            ],
            "min" : [
                -0.3820037841796875,
                -0.1086658164858818,
                -0.4053678512573242
            ],
            "type" : "VEC3"
        },
        {
            "bufferView" : 9,
            "componentType" : 5126,
            "count" : 144,
            "type" : "VEC3"
        },
        {
            "bufferView" : 10,
            "componentType" : 5126,
            "count" : 144,
            "type" : "VEC2"
        },
        {
            "bufferView" : 11,
            "componentType" : 5123,
            "count" : 216,
            "type" : "SCALAR"
        }
    ],
    "bufferViews" : [
        {
            "buffer" : 0,
            "byteLength" : 8616,
            "byteOffset" : 0
        },
        {
            "buffer" : 0,
            "byteLength" : 8616,
            "byteOffset" : 8616
        },
        {
            "buffer" : 0,
            "byteLength" : 5744,
            "byteOffset" : 17232
        },
        {
            "buffer" : 0,
            "byteLength" : 2172,
            "byteOffset" : 22976
        },
        {
            "buffer" : 0,
            "byteLength" : 4860,
            "byteOffset" : 25148
        },
        {
            "buffer" : 0,
            "byteLength" : 4860,
            "byteOffset" : 30008
        },
        {
            "buffer" : 0,
            "byteLength" : 3240,
            "byteOffset" : 34868
        },
        {
            "buffer" : 0,
            "byteLength" : 1548,
            "byteOffset" : 38108
        },
        {
            "buffer" : 0,
            "byteLength" : 1728,
            "byteOffset" : 39656
        },
        {
            "buffer" : 0,
            "byteLength" : 1728,
            "byteOffset" : 41384
        },
        {
            "buffer" : 0,
            "byteLength" : 1152,
            "byteOffset" : 43112
        },
        {
            "buffer" : 0,
            "byteLength" : 432,
            "byteOffset" : 44264
        }
    ],
    "buffers" : [
        {
            "byteLength" : 44696,
            "uri" : "data:application/octet-stream;base64,"
        }
    ]
}
