{
    "asset" : {
        "generator" : "Khronos glTF Blender I/O v1.7.33",
        "version" : "2.0"
    },
    "scene" : 0,
    "scenes" : [
        {
            "name" : "Scene",
            "nodes" : [
                0
            ]
        }
    ],
    "nodes" : [
        {
            "mesh" : 0,
            "name" : "Circle"
        }
    ],
    "meshes" : [
        {
            "name" : "Circle",
            "primitives" : [
                {
                    "attributes" : {
                        "POSITION" : 0,
                        "NORMAL" : 1,
                        "TEXCOORD_0" : 2
                    },
                    "indices" : 3
                }
            ]
        }
    ],
    "accessors" : [
        {
            "bufferView" : 0,
            "componentType" : 5126,
            "count" : 846,
            "max" : [
                0.28585296869277954,
                1.6293795108795166,
                0.29343700408935547
            ],
            "min" : [
                -0.23251347243785858,
                -0.005155801773071289,
                -0.2249295711517334
            ],
            "type" : "VEC3"
        },
        {
            "bufferView" : 1,
            "componentType" : 5126,
            "count" : 846,
            "type" : "VEC3"
        },
        {
            "bufferView" : 2,
            "componentType" : 5126,
            "count" : 846,
            "type" : "VEC2"
        },
        {
            "bufferView" : 3,
            "componentType" : 5123,
            "count" : 1332,
            "type" : "SCALAR"
        }
    ],
    "bufferViews" : [
        {
            "buffer" : 0,
            "byteLength" : 10152,
            "byteOffset" : 0
        },
        {
            "buffer" : 0,
            "byteLength" : 10152,
            "byteOffset" : 10152
        },
        {
            "buffer" : 0,
            "byteLength" : 6768,
            "byteOffset" : 20304
        },
        {
            "buffer" : 0,
            "byteLength" : 2664,
            "byteOffset" : 27072
        }
    ],
    "buffers" : [
        {
            "byteLength" : 29736,
            "uri" : "data:application/octet-stream;base64,"
        }
    ]
}
