{
    "asset" : {
        "generator" : "Khronos glTF Blender I/O v1.7.33",
        "version" : "2.0"
    },
    "scene" : 0,
    "scenes" : [
        {
            "name" : "Scene",
            "nodes" : [
                0,
                1
            ]
        }
    ],
    "nodes" : [
        {
            "mesh" : 0,
            "name" : "Plane.003",
            "rotation" : [
                0.7071068286895752,
                0,
                0,
                0.7071068286895752
            ],
            "translation" : [
                -2.321786880493164,
                -0.03684629872441292,
                -0.26760879158973694
            ]
        },
        {
            "mesh" : 1,
            "name" : "Plane.004",
            "rotation" : [
                0.7071068286895752,
                0,
                0,
                0.7071068286895752
            ],
            "translation" : [
                1.534417986869812,
                0.10404235124588013,
                -0.29061514139175415
            ]
        }
    ],
    "animations" : [
        {
            "channels" : [
                {
                    "sampler" : 0,
                    "target" : {
                        "node" : 1,
                        "path" : "rotation"
                    }
                },
                {
                    "sampler" : 1,
                    "target" : {
                        "node" : 1,
                        "path" : "translation"
                    }
                }
            ],
            "name" : "Plane.004Action",
            "samplers" : [
                {
                    "input" : 20,
                    "interpolation" : "LINEAR",
                    "output" : 21
                },
                {
                    "input" : 20,
                    "interpolation" : "LINEAR",
                    "output" : 22
                }
            ]
        }
    ],
    "materials" : [
        {
            "doubleSided" : true,
            "name" : "Material.001",
            "pbrMetallicRoughness" : {
                "baseColorFactor" : [
                    0.2330154925584793,
                    0.2330154925584793,
                    0.2330154925584793,
                    1
                ],
                "metallicFactor" : 0,
                "roughnessFactor" : 0.5
            }
        },
        {
            "doubleSided" : true,
            "name" : "Material",
            "pbrMetallicRoughness" : {
                "baseColorFactor" : [
                    0.015994777902960777,
                    0.015994777902960777,
                    0.015994777902960777,
                    1
                ],
                "metallicFactor" : 0,
                "roughnessFactor" : 0.4000000059604645
            }
        },
        {
            "doubleSided" : true,
            "name" : "Material.002",
            "pbrMetallicRoughness" : {
                "baseColorFactor" : [
                    0.49692243337631226,
                    0.004320403095334768,
                    0.01186023186892271,
                    1
                ],
                "metallicFactor" : 0,
                "roughnessFactor" : 0.5
            }
        }
    ],
    "meshes" : [
        {
            "name" : "Plane.003",
            "primitives" : [
                {
                    "attributes" : {
                        "POSITION" : 0,
                        "NORMAL" : 1,
                        "TEXCOORD_0" : 2
                    },
                    "indices" : 3,
                    "material" : 0
                },
                {
                    "attributes" : {
                        "POSITION" : 4,
                        "NORMAL" : 5,
                        "TEXCOORD_0" : 6
                    },
                    "indices" : 7,
                    "material" : 1
                },
                {
                    "attributes" : {
                        "POSITION" : 8,
                        "NORMAL" : 9,
                        "TEXCOORD_0" : 10
                    },
                    "indices" : 11,
                    "material" : 2
                }
            ]
        },
        {
            "name" : "Plane.004",
            "primitives" : [
                {
                    "attributes" : {
                        "POSITION" : 12,
                        "NORMAL" : 13,
                        "TEXCOORD_0" : 14
                    },
                    "indices" : 15,
                    "material" : 0
                },
                {
                    "attributes" : {
                        "POSITION" : 16,
                        "NORMAL" : 17,
                        "TEXCOORD_0" : 18
                    },
                    "indices" : 19,
                    "material" : 1
                }
            ]
        }
    ],
    "accessors" : [
        {
            "bufferView" : 0,
            "componentType" : 5126,
            "count" : 63,
            "max" : [
                3.5548179149627686,
                0.0301654189825058,
                -0.3105851411819458
            ],
            "min" : [
                0.5251891613006592,
                -0.06983459740877151,
                -0.39961016178131104
            ],
            "type" : "VEC3"
        },
        {
            "bufferView" : 1,
            "componentType" : 5126,
            "count" : 63,
            "type" : "VEC3"
        },
        {
            "bufferView" : 2,
            "componentType" : 5126,
            "count" : 63,
            "type" : "VEC2"
        },
        {
            "bufferView" : 3,
            "componentType" : 5123,
            "count" : 144,
            "type" : "SCALAR"
        },
        {
            "bufferView" : 4,
            "componentType" : 5126,
            "count" : 1184,
            "max" : [
                4.61043643951416,
                0.11016541719436646,
                0.3882133364677429
            ],
            "min" : [
                -0.3864424228668213,
                -0.14983458817005157,
                -0.44581979513168335
            ],
            "type" : "VEC3"
        },
        {
            "bufferView" : 5,
            "componentType" : 5126,
            "count" : 1184,
            "type" : "VEC3"
        },
        {
            "bufferView" : 6,
            "componentType" : 5126,
            "count" : 1184,
            "type" : "VEC2"
        },
        {
            "bufferView" : 7,
            "componentType" : 5123,
            "count" : 2136,
            "type" : "SCALAR"
        },
        {
            "bufferView" : 8,
            "componentType" : 5126,
            "count" : 371,
            "max" : [
                4.610223770141602,
                0.11016544699668884,
                -0.17219528555870056
            ],
            "min" : [
                4.159341812133789,
                -0.14983458817005157,
                -0.3186097741127014
            ],
            "type" : "VEC3"
        },
        {
            "bufferView" : 9,
            "componentType" : 5126,
            "count" : 371,
            "type" : "VEC3"
        },
        {
            "bufferView" : 10,
            "componentType" : 5126,
            "count" : 371,
            "type" : "VEC2"
        },
        {
            "bufferView" : 11,
            "componentType" : 5123,
            "count" : 612,
            "type" : "SCALAR"
        },
        {
            "bufferView" : 12,
            "componentType" : 5126,
            "count" : 7,
            "max" : [
                0.07205629348754883,
                0.11656114459037781,
                0.01610809564590454
            ],
            "min" : [
                0.03508620709180832,
                -0.10407233238220215,
                -0.0905386433005333
            ],
            "type" : "VEC3"
        },
        {
            "bufferView" : 13,
            "componentType" : 5126,
            "count" : 7,
            "type" : "VEC3"
        },
        {
            "bufferView" : 14,
            "componentType" : 5126,
            "count" : 7,
            "type" : "VEC2"
        },
        {
            "bufferView" : 15,
            "componentType" : 5123,
            "count" : 15,
            "type" : "SCALAR"
        },
        {
            "bufferView" : 16,
            "componentType" : 5126,
            "count" : 275,
            "max" : [
                0.4453108310699463,
                0.11656114459037781,
                0.5257523655891418
            ],
            "min" : [
                -0.029775142669677734,
                -0.10407233238220215,
                -0.0905386433005333
            ],
            "type" : "VEC3"
        },
        {
            "bufferView" : 17,
            "componentType" : 5126,
            "count" : 275,
            "type" : "VEC3"
        },
        {
            "bufferView" : 18,
            "componentType" : 5126,
            "count" : 275,
            "type" : "VEC2"
        },
        {
            "bufferView" : 19,
            "componentType" : 5123,
            "count" : 501,
            "type" : "SCALAR"
        },
        {
            "bufferView" : 20,
            "componentType" : 5126,
            "count" : 20,
            "max" : [
                0.8333333333333334
            ],
            "min" : [
                0.041666666666666664
            ],
            "type" : "SCALAR"
        },
        {
            "bufferView" : 21,
            "componentType" : 5126,
            "count" : 20,
            "type" : "VEC4"
        },
        {
            "bufferView" : 22,
            "componentType" : 5126,
            "count" : 20,
            "type" : "VEC3"
        }
    ],
    "bufferViews" : [
        {
            "buffer" : 0,
            "byteLength" : 756,
            "byteOffset" : 0
        },
        {
            "buffer" : 0,
            "byteLength" : 756,
            "byteOffset" : 756
        },
        {
            "buffer" : 0,
            "byteLength" : 504,
            "byteOffset" : 1512
        },
        {
            "buffer" : 0,
            "byteLength" : 288,
            "byteOffset" : 2016
        },
        {
            "buffer" : 0,
            "byteLength" : 14208,
            "byteOffset" : 2304
        },
        {
            "buffer" : 0,
            "byteLength" : 14208,
            "byteOffset" : 16512
        },
        {
            "buffer" : 0,
            "byteLength" : 9472,
            "byteOffset" : 30720
        },
        {
            "buffer" : 0,
            "byteLength" : 4272,
            "byteOffset" : 40192
        },
        {
            "buffer" : 0,
            "byteLength" : 4452,
            "byteOffset" : 44464
        },
        {
            "buffer" : 0,
            "byteLength" : 4452,
            "byteOffset" : 48916
        },
        {
            "buffer" : 0,
            "byteLength" : 2968,
            "byteOffset" : 53368
        },
        {
            "buffer" : 0,
            "byteLength" : 1224,
            "byteOffset" : 56336
        },
        {
            "buffer" : 0,
            "byteLength" : 84,
            "byteOffset" : 57560
        },
        {
            "buffer" : 0,
            "byteLength" : 84,
            "byteOffset" : 57644
        },
        {
            "buffer" : 0,
            "byteLength" : 56,
            "byteOffset" : 57728
        },
        {
            "buffer" : 0,
            "byteLength" : 30,
            "byteOffset" : 57784
        },
        {
            "buffer" : 0,
            "byteLength" : 3300,
            "byteOffset" : 57816
        },
        {
            "buffer" : 0,
            "byteLength" : 3300,
            "byteOffset" : 61116
        },
        {
            "buffer" : 0,
            "byteLength" : 2200,
            "byteOffset" : 64416
        },
        {
            "buffer" : 0,
            "byteLength" : 1002,
            "byteOffset" : 66616
        },
        {
            "buffer" : 0,
            "byteLength" : 80,
            "byteOffset" : 67620
        },
        {
            "buffer" : 0,
            "byteLength" : 320,
            "byteOffset" : 67700
        },
        {
            "buffer" : 0,
            "byteLength" : 240,
            "byteOffset" : 68020
        }
    ],
    "buffers" : [
        {
            "byteLength" : 68260,
            "uri" : "data:application/octet-stream;base64,"
        }
    ]
}
