{
    "asset" : {
        "generator" : "Khronos glTF Blender I/O v1.7.33",
        "version" : "2.0"
    },
    "scene" : 0,
    "scenes" : [
        {
            "name" : "Scene",
            "nodes" : [
                0
            ]
        }
    ],
    "nodes" : [
        {
            "mesh" : 0,
            "name" : "Cube.020"
        }
    ],
    "materials" : [
        {
            "doubleSided" : true,
            "name" : "Balkony",
            "pbrMetallicRoughness" : {
                "baseColorFactor" : [
                    0.1788617968559265,
                    0.1788617968559265,
                    0.1788617968559265,
                    1
                ],
                "metallicFactor" : 0,
                "roughnessFactor" : 0.4000000059604645
            }
        },
        {
            "doubleSided" : true,
            "name" : "Blue",
            "pbrMetallicRoughness" : {
                "baseColorFactor" : [
                    0.023386413231492043,
                    0.6684191226959229,
                    0.8000000715255737,
                    1
                ],
                "metallicFactor" : 0,
                "roughnessFactor" : 0.5
            }
        },
        {
            "doubleSided" : true,
            "name" : "Brown",
            "pbrMetallicRoughness" : {
                "baseColorFactor" : [
                    0.10247363150119781,
                    0.029313573613762856,
                    0.003997093997895718,
                    1
                ],
                "metallicFactor" : 0,
                "roughnessFactor" : 0.5
            }
        },
        {
            "doubleSided" : true,
            "name" : "bdach",
            "pbrMetallicRoughness" : {
                "baseColorFactor" : [
                    0,
                    0,
                    0,
                    1
                ],
                "metallicFactor" : 0,
                "roughnessFactor" : 0.5
            }
        },
        {
            "doubleSided" : true,
            "name" : "buildnig",
            "pbrMetallicRoughness" : {
                "baseColorFactor" : [
                    0.35055553913116455,
                    0.1702326238155365,
                    0.023696381598711014,
                    1
                ],
                "metallicFactor" : 0,
                "roughnessFactor" : 0.5
            }
        }
    ],
    "meshes" : [
        {
            "name" : "Cube.022",
            "primitives" : [
                {
                    "attributes" : {
                        "POSITION" : 0,
                        "NORMAL" : 1,
                        "TEXCOORD_0" : 2
                    },
                    "indices" : 3,
                    "material" : 0
                },
                {
                    "attributes" : {
                        "POSITION" : 4,
                        "NORMAL" : 5,
                        "TEXCOORD_0" : 6
                    },
                    "indices" : 7,
                    "material" : 1
                },
                {
                    "attributes" : {
                        "POSITION" : 8,
                        "NORMAL" : 9,
                        "TEXCOORD_0" : 10
                    },
                    "indices" : 11,
                    "material" : 2
                },
                {
                    "attributes" : {
                        "POSITION" : 12,
                        "NORMAL" : 13,
                        "TEXCOORD_0" : 14
                    },
                    "indices" : 15,
                    "material" : 3
                },
                {
                    "attributes" : {
                        "POSITION" : 16,
                        "NORMAL" : 17,
                        "TEXCOORD_0" : 18
                    },
                    "indices" : 19,
                    "material" : 4
                }
            ]
        }
    ],
    "accessors" : [
        {
            "bufferView" : 0,
            "componentType" : 5126,
            "count" : 2434,
            "max" : [
                0.2376163899898529,
                0.9768960475921631,
                0.33457356691360474
            ],
            "min" : [
                -1.0467405319213867,
                0.011512935161590576,
                -0.19799059629440308
            ],
            "type" : "VEC3"
        },
        {
            "bufferView" : 1,
            "componentType" : 5126,
            "count" : 2434,
            "type" : "VEC3"
        },
        {
            "bufferView" : 2,
            "componentType" : 5126,
            "count" : 2434,
            "type" : "VEC2"
        },
        {
            "bufferView" : 3,
            "componentType" : 5123,
            "count" : 3678,
            "type" : "SCALAR"
        },
        {
            "bufferView" : 4,
            "componentType" : 5126,
            "count" : 40,
            "max" : [
                0.2038828730583191,
                0.5526798367500305,
                0.3091246485710144
            ],
            "min" : [
                -0.9246237874031067,
                0.015669746324419975,
                -0.18567568063735962
            ],
            "type" : "VEC3"
        },
        {
            "bufferView" : 5,
            "componentType" : 5126,
            "count" : 40,
            "type" : "VEC3"
        },
        {
            "bufferView" : 6,
            "componentType" : 5126,
            "count" : 40,
            "type" : "VEC2"
        },
        {
            "bufferView" : 7,
            "componentType" : 5123,
            "count" : 60,
            "type" : "SCALAR"
        },
        {
            "bufferView" : 8,
            "componentType" : 5126,
            "count" : 168,
            "max" : [
                0.8947603702545166,
                0.8616188168525696,
                0.5750283598899841
            ],
            "min" : [
                -0.9189448952674866,
                0.01533512119203806,
                -0.6329132318496704
            ],
            "type" : "VEC3"
        },
        {
            "bufferView" : 9,
            "componentType" : 5126,
            "count" : 168,
            "type" : "VEC3"
        },
        {
            "bufferView" : 10,
            "componentType" : 5126,
            "count" : 168,
            "type" : "VEC2"
        },
        {
            "bufferView" : 11,
            "componentType" : 5123,
            "count" : 276,
            "type" : "SCALAR"
        },
        {
            "bufferView" : 12,
            "componentType" : 5126,
            "count" : 78,
            "max" : [
                0.959911048412323,
                0.8877346515655518,
                0.4009508490562439
            ],
            "min" : [
                -0.9950694441795349,
                0.498024582862854,
                -0.6863967776298523
            ],
            "type" : "VEC3"
        },
        {
            "bufferView" : 13,
            "componentType" : 5126,
            "count" : 78,
            "type" : "VEC3"
        },
        {
            "bufferView" : 14,
            "componentType" : 5126,
            "count" : 78,
            "type" : "VEC2"
        },
        {
            "bufferView" : 15,
            "componentType" : 5123,
            "count" : 120,
            "type" : "SCALAR"
        },
        {
            "bufferView" : 16,
            "componentType" : 5126,
            "count" : 4,
            "max" : [
                0.8321536779403687,
                0.3789099156856537,
                0.5376120209693909
            ],
            "min" : [
                0.4960659444332123,
                0.019453153014183044,
                0.5376120209693909
            ],
            "type" : "VEC3"
        },
        {
            "bufferView" : 17,
            "componentType" : 5126,
            "count" : 4,
            "type" : "VEC3"
        },
        {
            "bufferView" : 18,
            "componentType" : 5126,
            "count" : 4,
            "type" : "VEC2"
        },
        {
            "bufferView" : 19,
            "componentType" : 5123,
            "count" : 6,
            "type" : "SCALAR"
        }
    ],
    "bufferViews" : [
        {
            "buffer" : 0,
            "byteLength" : 29208,
            "byteOffset" : 0
        },
        {
            "buffer" : 0,
            "byteLength" : 29208,
            "byteOffset" : 29208
        },
        {
            "buffer" : 0,
            "byteLength" : 19472,
            "byteOffset" : 58416
        },
        {
            "buffer" : 0,
            "byteLength" : 7356,
            "byteOffset" : 77888
        },
        {
            "buffer" : 0,
            "byteLength" : 480,
            "byteOffset" : 85244
        },
        {
            "buffer" : 0,
            "byteLength" : 480,
            "byteOffset" : 85724
        },
        {
            "buffer" : 0,
            "byteLength" : 320,
            "byteOffset" : 86204
        },
        {
            "buffer" : 0,
            "byteLength" : 120,
            "byteOffset" : 86524
        },
        {
            "buffer" : 0,
            "byteLength" : 2016,
            "byteOffset" : 86644
        },
        {
            "buffer" : 0,
            "byteLength" : 2016,
            "byteOffset" : 88660
        },
        {
            "buffer" : 0,
            "byteLength" : 1344,
            "byteOffset" : 90676
        },
        {
            "buffer" : 0,
            "byteLength" : 552,
            "byteOffset" : 92020
        },
        {
            "buffer" : 0,
            "byteLength" : 936,
            "byteOffset" : 92572
        },
        {
            "buffer" : 0,
            "byteLength" : 936,
            "byteOffset" : 93508
        },
        {
            "buffer" : 0,
            "byteLength" : 624,
            "byteOffset" : 94444
        },
        {
            "buffer" : 0,
            "byteLength" : 240,
            "byteOffset" : 95068
        },
        {
            "buffer" : 0,
            "byteLength" : 48,
            "byteOffset" : 95308
        },
        {
            "buffer" : 0,
            "byteLength" : 48,
            "byteOffset" : 95356
        },
        {
            "buffer" : 0,
            "byteLength" : 32,
            "byteOffset" : 95404
        },
        {
            "buffer" : 0,
            "byteLength" : 12,
            "byteOffset" : 95436
        }
    ],
    "buffers" : [
        {
            "byteLength" : 95448,
            "uri" : "data:application/octet-stream;base64,"
        }
    ]
}
