{
    "asset" : {
        "generator" : "Khronos glTF Blender I/O v1.7.33",
        "version" : "2.0"
    },
    "scene" : 0,
    "scenes" : [
        {
            "name" : "Scene",
            "nodes" : [
                0
            ]
        }
    ],
    "nodes" : [
        {
            "mesh" : 0,
            "name" : "Cube.012"
        }
    ],
    "materials" : [
        {
            "doubleSided" : true,
            "name" : "buildnig",
            "pbrMetallicRoughness" : {
                "baseColorFactor" : [
                    0.35055553913116455,
                    0.1702326238155365,
                    0.023696381598711014,
                    1
                ],
                "metallicFactor" : 0,
                "roughnessFactor" : 0.5
            }
        },
        {
            "doubleSided" : true,
            "name" : "Brown",
            "pbrMetallicRoughness" : {
                "baseColorFactor" : [
                    0.10247363150119781,
                    0.029313573613762856,
                    0.003997093997895718,
                    1
                ],
                "metallicFactor" : 0,
                "roughnessFactor" : 0.5
            }
        },
        {
            "doubleSided" : true,
            "name" : "Blue",
            "pbrMetallicRoughness" : {
                "baseColorFactor" : [
                    0.023386413231492043,
                    0.6684191226959229,
                    0.8000000715255737,
                    1
                ],
                "metallicFactor" : 0,
                "roughnessFactor" : 0.5
            }
        },
        {
            "doubleSided" : true,
            "name" : "Balkony",
            "pbrMetallicRoughness" : {
                "baseColorFactor" : [
                    0.1788617968559265,
                    0.1788617968559265,
                    0.1788617968559265,
                    1
                ],
                "metallicFactor" : 0,
                "roughnessFactor" : 0.4000000059604645
            }
        },
        {
            "doubleSided" : true,
            "name" : "dach",
            "pbrMetallicRoughness" : {
                "baseColorFactor" : [
                    0.4385438859462738,
                    0.004110131412744522,
                    0.004110131412744522,
                    1
                ],
                "metallicFactor" : 0,
                "roughnessFactor" : 0.5
            }
        }
    ],
    "meshes" : [
        {
            "name" : "Cube.017",
            "primitives" : [
                {
                    "attributes" : {
                        "POSITION" : 0,
                        "NORMAL" : 1,
                        "TEXCOORD_0" : 2
                    },
                    "indices" : 3,
                    "material" : 0
                },
                {
                    "attributes" : {
                        "POSITION" : 4,
                        "NORMAL" : 5,
                        "TEXCOORD_0" : 6
                    },
                    "indices" : 7,
                    "material" : 1
                },
                {
                    "attributes" : {
                        "POSITION" : 8,
                        "NORMAL" : 9,
                        "TEXCOORD_0" : 10
                    },
                    "indices" : 11,
                    "material" : 2
                },
                {
                    "attributes" : {
                        "POSITION" : 12,
                        "NORMAL" : 13,
                        "TEXCOORD_0" : 14
                    },
                    "indices" : 15,
                    "material" : 3
                },
                {
                    "attributes" : {
                        "POSITION" : 16,
                        "NORMAL" : 17,
                        "TEXCOORD_0" : 18
                    },
                    "indices" : 19,
                    "material" : 4
                }
            ]
        }
    ],
    "accessors" : [
        {
            "bufferView" : 0,
            "componentType" : 5126,
            "count" : 409,
            "max" : [
                0.6889620423316956,
                1,
                1.6236821413040161
            ],
            "min" : [
                -2.253392457962036,
                0.22856691479682922,
                -1.258508563041687
            ],
            "type" : "VEC3"
        },
        {
            "bufferView" : 1,
            "componentType" : 5126,
            "count" : 409,
            "type" : "VEC3"
        },
        {
            "bufferView" : 2,
            "componentType" : 5126,
            "count" : 409,
            "type" : "VEC2"
        },
        {
            "bufferView" : 3,
            "componentType" : 5123,
            "count" : 900,
            "type" : "SCALAR"
        },
        {
            "bufferView" : 4,
            "componentType" : 5126,
            "count" : 2075,
            "max" : [
                0.7300426363945007,
                0.8774412274360657,
                1.4881179332733154
            ],
            "min" : [
                -2.2889678478240967,
                0.2773408591747284,
                -1.2967029809951782
            ],
            "type" : "VEC3"
        },
        {
            "bufferView" : 5,
            "componentType" : 5126,
            "count" : 2075,
            "type" : "VEC3"
        },
        {
            "bufferView" : 6,
            "componentType" : 5126,
            "count" : 2075,
            "type" : "VEC2"
        },
        {
            "bufferView" : 7,
            "componentType" : 5123,
            "count" : 4452,
            "type" : "SCALAR"
        },
        {
            "bufferView" : 8,
            "componentType" : 5126,
            "count" : 128,
            "max" : [
                0.6998613476753235,
                0.8359223008155823,
                0.9872801303863525
            ],
            "min" : [
                -2.258786678314209,
                0.4815538823604584,
                -1.266521692276001
            ],
            "type" : "VEC3"
        },
        {
            "bufferView" : 9,
            "componentType" : 5126,
            "count" : 128,
            "type" : "VEC3"
        },
        {
            "bufferView" : 10,
            "componentType" : 5126,
            "count" : 128,
            "type" : "VEC2"
        },
        {
            "bufferView" : 11,
            "componentType" : 5123,
            "count" : 192,
            "type" : "SCALAR"
        },
        {
            "bufferView" : 12,
            "componentType" : 5126,
            "count" : 1984,
            "max" : [
                -0.6195643544197083,
                0.5784273743629456,
                1.5077178478240967
            ],
            "min" : [
                -0.6493391990661621,
                0.5486525893211365,
                1.4779431819915771
            ],
            "type" : "VEC3"
        },
        {
            "bufferView" : 13,
            "componentType" : 5126,
            "count" : 1984,
            "type" : "VEC3"
        },
        {
            "bufferView" : 14,
            "componentType" : 5126,
            "count" : 1984,
            "type" : "VEC2"
        },
        {
            "bufferView" : 15,
            "componentType" : 5123,
            "count" : 2880,
            "type" : "SCALAR"
        },
        {
            "bufferView" : 16,
            "componentType" : 5126,
            "count" : 16,
            "max" : [
                0.9173770546913147,
                2.1585681438446045,
                1.604831337928772
            ],
            "min" : [
                -2.4789581298828125,
                0.9716629385948181,
                -1.4246968030929565
            ],
            "type" : "VEC3"
        },
        {
            "bufferView" : 17,
            "componentType" : 5126,
            "count" : 16,
            "type" : "VEC3"
        },
        {
            "bufferView" : 18,
            "componentType" : 5126,
            "count" : 16,
            "type" : "VEC2"
        },
        {
            "bufferView" : 19,
            "componentType" : 5123,
            "count" : 18,
            "type" : "SCALAR"
        }
    ],
    "bufferViews" : [
        {
            "buffer" : 0,
            "byteLength" : 4908,
            "byteOffset" : 0
        },
        {
            "buffer" : 0,
            "byteLength" : 4908,
            "byteOffset" : 4908
        },
        {
            "buffer" : 0,
            "byteLength" : 3272,
            "byteOffset" : 9816
        },
        {
            "buffer" : 0,
            "byteLength" : 1800,
            "byteOffset" : 13088
        },
        {
            "buffer" : 0,
            "byteLength" : 24900,
            "byteOffset" : 14888
        },
        {
            "buffer" : 0,
            "byteLength" : 24900,
            "byteOffset" : 39788
        },
        {
            "buffer" : 0,
            "byteLength" : 16600,
            "byteOffset" : 64688
        },
        {
            "buffer" : 0,
            "byteLength" : 8904,
            "byteOffset" : 81288
        },
        {
            "buffer" : 0,
            "byteLength" : 1536,
            "byteOffset" : 90192
        },
        {
            "buffer" : 0,
            "byteLength" : 1536,
            "byteOffset" : 91728
        },
        {
            "buffer" : 0,
            "byteLength" : 1024,
            "byteOffset" : 93264
        },
        {
            "buffer" : 0,
            "byteLength" : 384,
            "byteOffset" : 94288
        },
        {
            "buffer" : 0,
            "byteLength" : 23808,
            "byteOffset" : 94672
        },
        {
            "buffer" : 0,
            "byteLength" : 23808,
            "byteOffset" : 118480
        },
        {
            "buffer" : 0,
            "byteLength" : 15872,
            "byteOffset" : 142288
        },
        {
            "buffer" : 0,
            "byteLength" : 5760,
            "byteOffset" : 158160
        },
        {
            "buffer" : 0,
            "byteLength" : 192,
            "byteOffset" : 163920
        },
        {
            "buffer" : 0,
            "byteLength" : 192,
            "byteOffset" : 164112
        },
        {
            "buffer" : 0,
            "byteLength" : 128,
            "byteOffset" : 164304
        },
        {
            "buffer" : 0,
            "byteLength" : 36,
            "byteOffset" : 164432
        }
    ],
    "buffers" : [
        {
            "byteLength" : 164468,
            "uri" : "data:application/octet-stream;base64,"
        }
    ]
}
