{
    "asset" : {
        "generator" : "Khronos glTF Blender I/O v1.7.33",
        "version" : "2.0"
    },
    "scene" : 0,
    "scenes" : [
        {
            "name" : "Scene",
            "nodes" : [
                0
            ]
        }
    ],
    "nodes" : [
        {
            "mesh" : 0,
            "name" : "Cube.010",
            "rotation" : [
                0,
                1,
                0,
                -1.6292068494294654e-07
            ],
            "scale" : [
                3.9737021923065186,
                3.9737021923065186,
                3.9737021923065186
            ]
        }
    ],
    "materials" : [
        {
            "doubleSided" : true,
            "name" : "Brown",
            "pbrMetallicRoughness" : {
                "baseColorFactor" : [
                    0.10247363150119781,
                    0.029313573613762856,
                    0.003997093997895718,
                    1
                ],
                "metallicFactor" : 0,
                "roughnessFactor" : 0.5
            }
        },
        {
            "doubleSided" : true,
            "name" : "Blue",
            "pbrMetallicRoughness" : {
                "baseColorFactor" : [
                    0.023386413231492043,
                    0.6684191226959229,
                    0.8000000715255737,
                    1
                ],
                "metallicFactor" : 0,
                "roughnessFactor" : 0.5
            }
        },
        {
            "doubleSided" : true,
            "name" : "buildnig",
            "pbrMetallicRoughness" : {
                "baseColorFactor" : [
                    0.35055553913116455,
                    0.1702326238155365,
                    0.023696381598711014,
                    1
                ],
                "metallicFactor" : 0,
                "roughnessFactor" : 0.5
            }
        },
        {
            "doubleSided" : true,
            "name" : "Balkony",
            "pbrMetallicRoughness" : {
                "baseColorFactor" : [
                    0.1788617968559265,
                    0.1788617968559265,
                    0.1788617968559265,
                    1
                ],
                "metallicFactor" : 0,
                "roughnessFactor" : 0.4000000059604645
            }
        }
    ],
    "meshes" : [
        {
            "name" : "Cube.011",
            "primitives" : [
                {
                    "attributes" : {
                        "POSITION" : 0,
                        "NORMAL" : 1,
                        "TEXCOORD_0" : 2
                    },
                    "indices" : 3,
                    "material" : 0
                },
                {
                    "attributes" : {
                        "POSITION" : 4,
                        "NORMAL" : 5,
                        "TEXCOORD_0" : 6
                    },
                    "indices" : 7,
                    "material" : 1
                },
                {
                    "attributes" : {
                        "POSITION" : 8,
                        "NORMAL" : 9,
                        "TEXCOORD_0" : 10
                    },
                    "indices" : 11,
                    "material" : 2
                },
                {
                    "attributes" : {
                        "POSITION" : 12,
                        "NORMAL" : 13,
                        "TEXCOORD_0" : 14
                    },
                    "indices" : 15,
                    "material" : 3
                }
            ]
        }
    ],
    "accessors" : [
        {
            "bufferView" : 0,
            "componentType" : 5126,
            "count" : 176,
            "max" : [
                2.26287841796875,
                1,
                2.7520968914031982
            ],
            "min" : [
                0.25527870655059814,
                0.03914034366607666,
                -2.996184825897217
            ],
            "type" : "VEC3"
        },
        {
            "bufferView" : 1,
            "componentType" : 5126,
            "count" : 176,
            "type" : "VEC3"
        },
        {
            "bufferView" : 2,
            "componentType" : 5126,
            "count" : 176,
            "type" : "VEC2"
        },
        {
            "bufferView" : 3,
            "componentType" : 5123,
            "count" : 288,
            "type" : "SCALAR"
        },
        {
            "bufferView" : 4,
            "componentType" : 5126,
            "count" : 16,
            "max" : [
                2.1588988304138184,
                0.8960204720497131,
                2.64570951461792
            ],
            "min" : [
                0.3592582941055298,
                0.03914034366607666,
                -2.8897976875305176
            ],
            "type" : "VEC3"
        },
        {
            "bufferView" : 5,
            "componentType" : 5126,
            "count" : 16,
            "type" : "VEC3"
        },
        {
            "bufferView" : 6,
            "componentType" : 5126,
            "count" : 16,
            "type" : "VEC2"
        },
        {
            "bufferView" : 7,
            "componentType" : 5123,
            "count" : 24,
            "type" : "SCALAR"
        },
        {
            "bufferView" : 8,
            "componentType" : 5126,
            "count" : 753,
            "max" : [
                3.6232221126556396,
                1.2077587842941284,
                2.7518632411956787
            ],
            "min" : [
                -4.660923957824707,
                0.0010094642639160156,
                -2.967289447784424
            ],
            "type" : "VEC3"
        },
        {
            "bufferView" : 9,
            "componentType" : 5126,
            "count" : 753,
            "type" : "VEC3"
        },
        {
            "bufferView" : 10,
            "componentType" : 5126,
            "count" : 753,
            "type" : "VEC2"
        },
        {
            "bufferView" : 11,
            "componentType" : 5123,
            "count" : 1509,
            "type" : "SCALAR"
        },
        {
            "bufferView" : 12,
            "componentType" : 5126,
            "count" : 184,
            "max" : [
                2.8063249588012695,
                0.21965810656547546,
                3.7458980083465576
            ],
            "min" : [
                -0.30012738704681396,
                0.0010094642639160156,
                -4.00126314163208
            ],
            "type" : "VEC3"
        },
        {
            "bufferView" : 13,
            "componentType" : 5126,
            "count" : 184,
            "type" : "VEC3"
        },
        {
            "bufferView" : 14,
            "componentType" : 5126,
            "count" : 184,
            "type" : "VEC2"
        },
        {
            "bufferView" : 15,
            "componentType" : 5123,
            "count" : 324,
            "type" : "SCALAR"
        }
    ],
    "bufferViews" : [
        {
            "buffer" : 0,
            "byteLength" : 2112,
            "byteOffset" : 0
        },
        {
            "buffer" : 0,
            "byteLength" : 2112,
            "byteOffset" : 2112
        },
        {
            "buffer" : 0,
            "byteLength" : 1408,
            "byteOffset" : 4224
        },
        {
            "buffer" : 0,
            "byteLength" : 576,
            "byteOffset" : 5632
        },
        {
            "buffer" : 0,
            "byteLength" : 192,
            "byteOffset" : 6208
        },
        {
            "buffer" : 0,
            "byteLength" : 192,
            "byteOffset" : 6400
        },
        {
            "buffer" : 0,
            "byteLength" : 128,
            "byteOffset" : 6592
        },
        {
            "buffer" : 0,
            "byteLength" : 48,
            "byteOffset" : 6720
        },
        {
            "buffer" : 0,
            "byteLength" : 9036,
            "byteOffset" : 6768
        },
        {
            "buffer" : 0,
            "byteLength" : 9036,
            "byteOffset" : 15804
        },
        {
            "buffer" : 0,
            "byteLength" : 6024,
            "byteOffset" : 24840
        },
        {
            "buffer" : 0,
            "byteLength" : 3018,
            "byteOffset" : 30864
        },
        {
            "buffer" : 0,
            "byteLength" : 2208,
            "byteOffset" : 33884
        },
        {
            "buffer" : 0,
            "byteLength" : 2208,
            "byteOffset" : 36092
        },
        {
            "buffer" : 0,
            "byteLength" : 1472,
            "byteOffset" : 38300
        },
        {
            "buffer" : 0,
            "byteLength" : 648,
            "byteOffset" : 39772
        }
    ],
    "buffers" : [
        {
            "byteLength" : 40420,
            "uri" : "data:application/octet-stream;base64,"
        }
    ]
}
