{
    "asset" : {
        "generator" : "Khronos glTF Blender I/O v1.7.33",
        "version" : "2.0"
    },
    "scene" : 0,
    "scenes" : [
        {
            "name" : "Scene",
            "nodes" : [
                0
            ]
        }
    ],
    "nodes" : [
        {
            "mesh" : 0,
            "name" : "Cube.027",
            "translation" : [
                -0.009740617126226425,
                -0.3107331097126007,
                0.9679796695709229
            ]
        }
    ],
    "materials" : [
        {
            "doubleSided" : true,
            "name" : "Material.001",
            "pbrMetallicRoughness" : {
                "baseColorFactor" : [
                    0.005270427092909813,
                    0.20189987123012543,
                    0,
                    1
                ],
                "metallicFactor" : 0,
                "roughnessFactor" : 0.5
            }
        },
        {
            "doubleSided" : true,
            "name" : "Spod",
            "pbrMetallicRoughness" : {
                "baseColorFactor" : [
                    0,
                    0,
                    0,
                    1
                ],
                "metallicFactor" : 0,
                "roughnessFactor" : 0.5
            }
        },
        {
            "doubleSided" : true,
            "name" : "Srebny",
            "pbrMetallicRoughness" : {
                "baseColorFactor" : [
                    0.2956908941268921,
                    0.2956908941268921,
                    0.2956908941268921,
                    1
                ],
                "metallicFactor" : 0,
                "roughnessFactor" : 0.5
            }
        }
    ],
    "meshes" : [
        {
            "name" : "Cube.049",
            "primitives" : [
                {
                    "attributes" : {
                        "POSITION" : 0,
                        "NORMAL" : 1,
                        "TEXCOORD_0" : 2
                    },
                    "indices" : 3,
                    "material" : 0
                },
                {
                    "attributes" : {
                        "POSITION" : 4,
                        "NORMAL" : 5,
                        "TEXCOORD_0" : 6
                    },
                    "indices" : 7,
                    "material" : 1
                },
                {
                    "attributes" : {
                        "POSITION" : 8,
                        "NORMAL" : 9,
                        "TEXCOORD_0" : 10
                    },
                    "indices" : 11,
                    "material" : 2
                }
            ]
        }
    ],
    "accessors" : [
        {
            "bufferView" : 0,
            "componentType" : 5126,
            "count" : 1205,
            "max" : [
                0.33119314908981323,
                1.2886525392532349,
                0.3632698357105255
            ],
            "min" : [
                -0.33916139602661133,
                0.013904303312301636,
                -0.3316532373428345
            ],
            "type" : "VEC3"
        },
        {
            "bufferView" : 1,
            "componentType" : 5126,
            "count" : 1205,
            "type" : "VEC3"
        },
        {
            "bufferView" : 2,
            "componentType" : 5126,
            "count" : 1205,
            "type" : "VEC2"
        },
        {
            "bufferView" : 3,
            "componentType" : 5123,
            "count" : 2070,
            "type" : "SCALAR"
        },
        {
            "bufferView" : 4,
            "componentType" : 5126,
            "count" : 1394,
            "max" : [
                0.337276816368103,
                1.2618364095687866,
                0.29188138246536255
            ],
            "min" : [
                -0.3503391742706299,
                -0.03552016615867615,
                -0.28607845306396484
            ],
            "type" : "VEC3"
        },
        {
            "bufferView" : 5,
            "componentType" : 5126,
            "count" : 1394,
            "type" : "VEC3"
        },
        {
            "bufferView" : 6,
            "componentType" : 5126,
            "count" : 1394,
            "type" : "VEC2"
        },
        {
            "bufferView" : 7,
            "componentType" : 5123,
            "count" : 2178,
            "type" : "SCALAR"
        },
        {
            "bufferView" : 8,
            "componentType" : 5126,
            "count" : 254,
            "max" : [
                0.3416249752044678,
                1.2735750675201416,
                0.34258416295051575
            ],
            "min" : [
                -0.3501893877983093,
                0.06570383906364441,
                0.11360663175582886
            ],
            "type" : "VEC3"
        },
        {
            "bufferView" : 9,
            "componentType" : 5126,
            "count" : 254,
            "type" : "VEC3"
        },
        {
            "bufferView" : 10,
            "componentType" : 5126,
            "count" : 254,
            "type" : "VEC2"
        },
        {
            "bufferView" : 11,
            "componentType" : 5123,
            "count" : 456,
            "type" : "SCALAR"
        }
    ],
    "bufferViews" : [
        {
            "buffer" : 0,
            "byteLength" : 14460,
            "byteOffset" : 0
        },
        {
            "buffer" : 0,
            "byteLength" : 14460,
            "byteOffset" : 14460
        },
        {
            "buffer" : 0,
            "byteLength" : 9640,
            "byteOffset" : 28920
        },
        {
            "buffer" : 0,
            "byteLength" : 4140,
            "byteOffset" : 38560
        },
        {
            "buffer" : 0,
            "byteLength" : 16728,
            "byteOffset" : 42700
        },
        {
            "buffer" : 0,
            "byteLength" : 16728,
            "byteOffset" : 59428
        },
        {
            "buffer" : 0,
            "byteLength" : 11152,
            "byteOffset" : 76156
        },
        {
            "buffer" : 0,
            "byteLength" : 4356,
            "byteOffset" : 87308
        },
        {
            "buffer" : 0,
            "byteLength" : 3048,
            "byteOffset" : 91664
        },
        {
            "buffer" : 0,
            "byteLength" : 3048,
            "byteOffset" : 94712
        },
        {
            "buffer" : 0,
            "byteLength" : 2032,
            "byteOffset" : 97760
        },
        {
            "buffer" : 0,
            "byteLength" : 912,
            "byteOffset" : 99792
        }
    ],
    "buffers" : [
        {
            "byteLength" : 100704,
            "uri" : "data:application/octet-stream;base64,"
        }
    ]
}
