{
    "asset" : {
        "generator" : "Khronos glTF Blender I/O v1.7.33",
        "version" : "2.0"
    },
    "scene" : 0,
    "scenes" : [
        {
            "name" : "Scene",
            "nodes" : [
                0
            ]
        }
    ],
    "nodes" : [
        {
            "mesh" : 0,
            "name" : "Cube.027",
            "translation" : [
                4.4833502769470215,
                -0.876964271068573,
                0.3263801038265228
            ]
        }
    ],
    "materials" : [
        {
            "doubleSided" : true,
            "name" : "Material.001",
            "pbrMetallicRoughness" : {
                "baseColorFactor" : [
                    0.005270427092909813,
                    0.20189987123012543,
                    0,
                    1
                ],
                "metallicFactor" : 0,
                "roughnessFactor" : 0.5
            }
        },
        {
            "doubleSided" : true,
            "name" : "Spod",
            "pbrMetallicRoughness" : {
                "baseColorFactor" : [
                    0,
                    0,
                    0,
                    1
                ],
                "metallicFactor" : 0,
                "roughnessFactor" : 0.5
            }
        },
        {
            "doubleSided" : true,
            "name" : "Srebny",
            "pbrMetallicRoughness" : {
                "baseColorFactor" : [
                    0.2956908941268921,
                    0.2956908941268921,
                    0.2956908941268921,
                    1
                ],
                "metallicFactor" : 0,
                "roughnessFactor" : 0.5
            }
        }
    ],
    "meshes" : [
        {
            "name" : "Cube.049",
            "primitives" : [
                {
                    "attributes" : {
                        "POSITION" : 0,
                        "NORMAL" : 1,
                        "TEXCOORD_0" : 2
                    },
                    "indices" : 3,
                    "material" : 0
                },
                {
                    "attributes" : {
                        "POSITION" : 4,
                        "NORMAL" : 5,
                        "TEXCOORD_0" : 6
                    },
                    "indices" : 7,
                    "material" : 1
                },
                {
                    "attributes" : {
                        "POSITION" : 8,
                        "NORMAL" : 9,
                        "TEXCOORD_0" : 10
                    },
                    "indices" : 11,
                    "material" : 2
                }
            ]
        }
    ],
    "accessors" : [
        {
            "bufferView" : 0,
            "componentType" : 5126,
            "count" : 1205,
            "max" : [
                1.0165947675704956,
                2.011335611343384,
                0.7508465051651001
            ],
            "min" : [
                -0.9834052324295044,
                -1.7918710708618164,
                -1.3224538564682007
            ],
            "type" : "VEC3"
        },
        {
            "bufferView" : 1,
            "componentType" : 5126,
            "count" : 1205,
            "type" : "VEC3"
        },
        {
            "bufferView" : 2,
            "componentType" : 5126,
            "count" : 1205,
            "type" : "VEC2"
        },
        {
            "bufferView" : 3,
            "componentType" : 5123,
            "count" : 2070,
            "type" : "SCALAR"
        },
        {
            "bufferView" : 4,
            "componentType" : 5126,
            "count" : 1364,
            "max" : [
                1.034745454788208,
                1.9313299655914307,
                0.537859320640564
            ],
            "min" : [
                -1.016754150390625,
                -1.939328908920288,
                -1.1864815950393677
            ],
            "type" : "VEC3"
        },
        {
            "bufferView" : 5,
            "componentType" : 5126,
            "count" : 1364,
            "type" : "VEC3"
        },
        {
            "bufferView" : 6,
            "componentType" : 5126,
            "count" : 1364,
            "type" : "VEC2"
        },
        {
            "bufferView" : 7,
            "componentType" : 5123,
            "count" : 2178,
            "type" : "SCALAR"
        },
        {
            "bufferView" : 8,
            "componentType" : 5126,
            "count" : 256,
            "max" : [
                1.0477181673049927,
                1.9663515090942383,
                0.6891309022903442
            ],
            "min" : [
                -1.0163073539733887,
                -1.6373274326324463,
                0.00597718358039856
            ],
            "type" : "VEC3"
        },
        {
            "bufferView" : 9,
            "componentType" : 5126,
            "count" : 256,
            "type" : "VEC3"
        },
        {
            "bufferView" : 10,
            "componentType" : 5126,
            "count" : 256,
            "type" : "VEC2"
        },
        {
            "bufferView" : 11,
            "componentType" : 5123,
            "count" : 456,
            "type" : "SCALAR"
        }
    ],
    "bufferViews" : [
        {
            "buffer" : 0,
            "byteLength" : 14460,
            "byteOffset" : 0
        },
        {
            "buffer" : 0,
            "byteLength" : 14460,
            "byteOffset" : 14460
        },
        {
            "buffer" : 0,
            "byteLength" : 9640,
            "byteOffset" : 28920
        },
        {
            "buffer" : 0,
            "byteLength" : 4140,
            "byteOffset" : 38560
        },
        {
            "buffer" : 0,
            "byteLength" : 16368,
            "byteOffset" : 42700
        },
        {
            "buffer" : 0,
            "byteLength" : 16368,
            "byteOffset" : 59068
        },
        {
            "buffer" : 0,
            "byteLength" : 10912,
            "byteOffset" : 75436
        },
        {
            "buffer" : 0,
            "byteLength" : 4356,
            "byteOffset" : 86348
        },
        {
            "buffer" : 0,
            "byteLength" : 3072,
            "byteOffset" : 90704
        },
        {
            "buffer" : 0,
            "byteLength" : 3072,
            "byteOffset" : 93776
        },
        {
            "buffer" : 0,
            "byteLength" : 2048,
            "byteOffset" : 96848
        },
        {
            "buffer" : 0,
            "byteLength" : 912,
            "byteOffset" : 98896
        }
    ],
    "buffers" : [
        {
            "byteLength" : 99808,
            "uri" : "data:application/octet-stream;base64,"
        }
    ]
}
