{
    "asset" : {
        "generator" : "Khronos glTF Blender I/O v1.7.33",
        "version" : "2.0"
    },
    "scene" : 0,
    "scenes" : [
        {
            "name" : "Scene",
            "nodes" : [
                0
            ]
        }
    ],
    "nodes" : [
        {
            "mesh" : 0,
            "name" : "Circle.001",
            "scale" : [
                0.2694435119628906,
                0.2694435119628906,
                0.2694435119628906
            ],
            "translation" : [
                0.4269378185272217,
                0,
                3.5018796920776367
            ]
        }
    ],
    "materials" : [
        {
            "doubleSided" : true,
            "name" : "drzewo",
            "pbrMetallicRoughness" : {
                "baseColorFactor" : [
                    0.09082040190696716,
                    0.033998917788267136,
                    0.0031882752664387226,
                    1
                ],
                "metallicFactor" : 0,
                "roughnessFactor" : 0.5
            }
        },
        {
            "doubleSided" : true,
            "name" : "Material",
            "pbrMetallicRoughness" : {
                "baseColorFactor" : [
                    0.007972409948706627,
                    0.8000000715255737,
                    0.0002498662506695837,
                    1
                ],
                "metallicFactor" : 0,
                "roughnessFactor" : 0.4000000059604645
            }
        }
    ],
    "meshes" : [
        {
            "name" : "Circle.002",
            "primitives" : [
                {
                    "attributes" : {
                        "POSITION" : 0,
                        "NORMAL" : 1,
                        "TEXCOORD_0" : 2
                    },
                    "indices" : 3,
                    "material" : 0
                },
                {
                    "attributes" : {
                        "POSITION" : 4,
                        "NORMAL" : 5,
                        "TEXCOORD_0" : 6
                    },
                    "indices" : 7,
                    "material" : 1
                }
            ]
        }
    ],
    "accessors" : [
        {
            "bufferView" : 0,
            "componentType" : 5126,
            "count" : 144,
            "max" : [
                0.7510623931884766,
                3.81011700630188,
                0.7510624527931213
            ],
            "min" : [
                -0.7510624527931213,
                -1.3613677024841309,
                -0.7510624527931213
            ],
            "type" : "VEC3"
        },
        {
            "bufferView" : 1,
            "componentType" : 5126,
            "count" : 144,
            "type" : "VEC3"
        },
        {
            "bufferView" : 2,
            "componentType" : 5126,
            "count" : 144,
            "type" : "VEC2"
        },
        {
            "bufferView" : 3,
            "componentType" : 5123,
            "count" : 234,
            "type" : "SCALAR"
        },
        {
            "bufferView" : 4,
            "componentType" : 5126,
            "count" : 1200,
            "max" : [
                5.5599822998046875,
                11.071949005126953,
                5.763546943664551
            ],
            "min" : [
                -5.008047103881836,
                1.881160020828247,
                -5.566617965698242
            ],
            "type" : "VEC3"
        },
        {
            "bufferView" : 5,
            "componentType" : 5126,
            "count" : 1200,
            "type" : "VEC3"
        },
        {
            "bufferView" : 6,
            "componentType" : 5126,
            "count" : 1200,
            "type" : "VEC2"
        },
        {
            "bufferView" : 7,
            "componentType" : 5123,
            "count" : 1200,
            "type" : "SCALAR"
        }
    ],
    "bufferViews" : [
        {
            "buffer" : 0,
            "byteLength" : 1728,
            "byteOffset" : 0
        },
        {
            "buffer" : 0,
            "byteLength" : 1728,
            "byteOffset" : 1728
        },
        {
            "buffer" : 0,
            "byteLength" : 1152,
            "byteOffset" : 3456
        },
        {
            "buffer" : 0,
            "byteLength" : 468,
            "byteOffset" : 4608
        },
        {
            "buffer" : 0,
            "byteLength" : 14400,
            "byteOffset" : 5076
        },
        {
            "buffer" : 0,
            "byteLength" : 14400,
            "byteOffset" : 19476
        },
        {
            "buffer" : 0,
            "byteLength" : 9600,
            "byteOffset" : 33876
        },
        {
            "buffer" : 0,
            "byteLength" : 2400,
            "byteOffset" : 43476
        }
    ],
    "buffers" : [
        {
            "byteLength" : 45876,
            "uri" : "data:application/octet-stream;base64,"
        }
    ]
}
